<?xml version="1.0" encoding="UTF-8"?>
<svg width="700pt" height="700pt" version="1.1" viewBox="0 0 700 700" xmlns="http://www.w3.org/2000/svg" xmlns:xlink="http://www.w3.org/1999/xlink">
 <defs>
  <symbol id="u" overflow="visible">
   <path d="m18.766-1.125c-0.96875 0.5-1.9805 0.875-3.0312 1.125-1.043 0.25781-2.1367 0.39062-3.2812 0.39062-3.3984 0-6.0898-0.94531-8.0781-2.8438-1.9922-1.9062-2.9844-4.4844-2.9844-7.7344 0-3.2578 0.99219-5.8359 2.9844-7.7344 1.9883-1.9062 4.6797-2.8594 8.0781-2.8594 1.1445 0 2.2383 0.13281 3.2812 0.39062 1.0508 0.25 2.0625 0.625 3.0312 1.125v4.2188c-0.98047-0.65625-1.9453-1.1406-2.8906-1.4531-0.94922-0.3125-1.9492-0.46875-3-0.46875-1.875 0-3.3516 0.60547-4.4219 1.8125-1.0742 1.1992-1.6094 2.8555-1.6094 4.9688 0 2.1055 0.53516 3.7617 1.6094 4.9688 1.0703 1.1992 2.5469 1.7969 4.4219 1.7969 1.0508 0 2.0508-0.14844 3-0.45312 0.94531-0.3125 1.9102-0.80078 2.8906-1.4688z"/>
  </symbol>
  <symbol id="c" overflow="visible">
   <path d="m13.734-11.141c-0.4375-0.19531-0.87109-0.34375-1.2969-0.4375-0.41797-0.10156-0.83984-0.15625-1.2656-0.15625-1.2617 0-2.2305 0.40625-2.9062 1.2188-0.67969 0.80469-1.0156 1.9531-1.0156 3.4531v7.0625h-4.8906v-15.312h4.8906v2.5156c0.625-1 1.3438-1.7266 2.1562-2.1875 0.82031-0.46875 1.8008-0.70312 2.9375-0.70312 0.16406 0 0.34375 0.011719 0.53125 0.03125 0.19531 0.011719 0.47656 0.039062 0.84375 0.078125z"/>
  </symbol>
  <symbol id="b" overflow="visible">
   <path d="m17.641-7.7031v1.4062h-11.453c0.125 1.1484 0.53906 2.0078 1.25 2.5781 0.70703 0.57422 1.7031 0.85938 2.9844 0.85938 1.0312 0 2.082-0.14844 3.1562-0.45312 1.082-0.3125 2.1914-0.77344 3.3281-1.3906v3.7656c-1.1562 0.4375-2.3125 0.76562-3.4688 0.98438-1.1562 0.22656-2.3125 0.34375-3.4688 0.34375-2.7734 0-4.9297-0.70312-6.4688-2.1094-1.5312-1.4062-2.2969-3.3789-2.2969-5.9219 0-2.5 0.75391-4.4609 2.2656-5.8906 1.5078-1.4375 3.582-2.1562 6.2188-2.1562 2.4062 0 4.332 0.73047 5.7812 2.1875 1.4453 1.4492 2.1719 3.3828 2.1719 5.7969zm-5.0312-1.625c0-0.92578-0.27344-1.6719-0.8125-2.2344-0.54297-0.57031-1.25-0.85938-2.125-0.85938-0.94922 0-1.7188 0.26562-2.3125 0.79688s-0.96484 1.2969-1.1094 2.2969z"/>
  </symbol>
  <symbol id="e" overflow="visible">
   <path d="m9.2188-6.8906c-1.0234 0-1.793 0.17188-2.3125 0.51562-0.51172 0.34375-0.76562 0.85547-0.76562 1.5312 0 0.625 0.20703 1.1172 0.625 1.4688 0.41406 0.34375 0.98828 0.51562 1.7188 0.51562 0.92578 0 1.7031-0.32812 2.3281-0.98438 0.63281-0.66406 0.95312-1.4922 0.95312-2.4844v-0.5625zm7.4688-1.8438v8.7344h-4.9219v-2.2656c-0.65625 0.92969-1.3984 1.6055-2.2188 2.0312-0.82422 0.41406-1.8242 0.625-3 0.625-1.5859 0-2.8711-0.45703-3.8594-1.375-0.99219-0.92578-1.4844-2.1289-1.4844-3.6094 0-1.7891 0.61328-3.1016 1.8438-3.9375 1.2383-0.84375 3.1797-1.2656 5.8281-1.2656h2.8906v-0.39062c0-0.76953-0.30859-1.332-0.92188-1.6875-0.61719-0.36328-1.5703-0.54688-2.8594-0.54688-1.0547 0-2.0312 0.10547-2.9375 0.3125-0.89844 0.21094-1.7305 0.52344-2.5 0.9375v-3.7344c1.0391-0.25 2.0859-0.44141 3.1406-0.57812 1.0625-0.13281 2.125-0.20312 3.1875-0.20312 2.7578 0 4.75 0.54688 5.9688 1.6406 1.2266 1.0859 1.8438 2.8555 1.8438 5.3125z"/>
  </symbol>
  <symbol id="a" overflow="visible">
   <path d="m7.7031-19.656v4.3438h5.0469v3.5h-5.0469v6.5c0 0.71094 0.14062 1.1875 0.42188 1.4375s0.83594 0.375 1.6719 0.375h2.5156v3.5h-4.1875c-1.9375 0-3.3125-0.39844-4.125-1.2031-0.80469-0.8125-1.2031-2.1797-1.2031-4.1094v-6.5h-2.4219v-3.5h2.4219v-4.3438z"/>
  </symbol>
  <symbol id="k" overflow="visible">
   <path d="m12.766-13.078v-8.2031h4.9219v21.281h-4.9219v-2.2188c-0.66797 0.90625-1.4062 1.5703-2.2188 1.9844s-1.7578 0.625-2.8281 0.625c-1.8867 0-3.4336-0.75-4.6406-2.25-1.2109-1.5-1.8125-3.4258-1.8125-5.7812 0-2.3633 0.60156-4.2969 1.8125-5.7969 1.207-1.5 2.7539-2.25 4.6406-2.25 1.0625 0 2 0.21484 2.8125 0.64062 0.82031 0.42969 1.5664 1.0859 2.2344 1.9688zm-3.2188 9.9219c1.0391 0 1.8359-0.37891 2.3906-1.1406 0.55078-0.76953 0.82812-1.8828 0.82812-3.3438 0-1.457-0.27734-2.5664-0.82812-3.3281-0.55469-0.76953-1.3516-1.1562-2.3906-1.1562-1.043 0-1.8398 0.38672-2.3906 1.1562-0.55469 0.76172-0.82812 1.8711-0.82812 3.3281 0 1.4609 0.27344 2.5742 0.82812 3.3438 0.55078 0.76172 1.3477 1.1406 2.3906 1.1406z"/>
  </symbol>
  <symbol id="j" overflow="visible">
   <path d="m10.5-3.1562c1.0508 0 1.8516-0.37891 2.4062-1.1406 0.55078-0.76953 0.82812-1.8828 0.82812-3.3438 0-1.457-0.27734-2.5664-0.82812-3.3281-0.55469-0.76953-1.3555-1.1562-2.4062-1.1562-1.0547 0-1.8594 0.38672-2.4219 1.1562-0.55469 0.77344-0.82812 1.8828-0.82812 3.3281 0 1.4492 0.27344 2.5586 0.82812 3.3281 0.5625 0.77344 1.3672 1.1562 2.4219 1.1562zm-3.25-9.9219c0.67578-0.88281 1.4219-1.5391 2.2344-1.9688 0.82031-0.42578 1.7656-0.64062 2.8281-0.64062 1.8945 0 3.4453 0.75 4.6562 2.25 1.207 1.5 1.8125 3.4336 1.8125 5.7969 0 2.3555-0.60547 4.2812-1.8125 5.7812-1.2109 1.5-2.7617 2.25-4.6562 2.25-1.0625 0-2.0078-0.21094-2.8281-0.625-0.8125-0.42578-1.5586-1.0859-2.2344-1.9844v2.2188h-4.8906v-21.281h4.8906z"/>
  </symbol>
  <symbol id="i" overflow="visible">
   <path d="m0.34375-15.312h4.8906l4.125 10.391 3.5-10.391h4.8906l-6.4375 16.766c-0.64844 1.6953-1.4023 2.8828-2.2656 3.5625-0.86719 0.6875-2 1.0312-3.4062 1.0312h-2.8438v-3.2188h1.5312c0.83203 0 1.4375-0.13672 1.8125-0.40625 0.38281-0.26172 0.67969-0.73047 0.89062-1.4062l0.14062-0.42188z"/>
  </symbol>
  <symbol id="h" overflow="visible">
   <path d="m1.5781-20.406h17.156v3.1719l-10.953 13.25h11.266v3.9844h-17.781v-3.1875l10.938-13.25h-10.625z"/>
  </symbol>
  <symbol id="g" overflow="visible">
   <path d="m14.719-14.828v3.9844c-0.65625-0.45703-1.3242-0.79688-2-1.0156-0.66797-0.21875-1.3594-0.32812-2.0781-0.32812-1.3672 0-2.4336 0.40234-3.2031 1.2031-0.76172 0.79297-1.1406 1.9062-1.1406 3.3438 0 1.4297 0.37891 2.543 1.1406 3.3438 0.76953 0.79297 1.8359 1.1875 3.2031 1.1875 0.75781 0 1.4844-0.10938 2.1719-0.32812 0.6875-0.22656 1.3203-0.56641 1.9062-1.0156v4c-0.76172 0.28125-1.5391 0.48828-2.3281 0.625-0.78125 0.14453-1.5742 0.21875-2.375 0.21875-2.7617 0-4.9219-0.70703-6.4844-2.125-1.5547-1.4141-2.3281-3.3828-2.3281-5.9062 0-2.5312 0.77344-4.5039 2.3281-5.9219 1.5625-1.4141 3.7227-2.125 6.4844-2.125 0.80078 0 1.5938 0.074219 2.375 0.21875 0.78125 0.13672 1.5547 0.35156 2.3281 0.64062z"/>
  </symbol>
  <symbol id="f" overflow="visible">
   <path d="m17.75-9.3281v9.3281h-4.9219v-7.1094c0-1.3438-0.03125-2.2656-0.09375-2.7656s-0.16797-0.86719-0.3125-1.1094c-0.1875-0.3125-0.44922-0.55469-0.78125-0.73438-0.32422-0.17578-0.69531-0.26562-1.1094-0.26562-1.0234 0-1.8242 0.39844-2.4062 1.1875-0.58594 0.78125-0.875 1.8711-0.875 3.2656v7.5312h-4.8906v-21.281h4.8906v8.2031c0.73828-0.88281 1.5195-1.5391 2.3438-1.9688 0.83203-0.42578 1.75-0.64062 2.75-0.64062 1.7695 0 3.1133 0.54688 4.0312 1.6406 0.91406 1.0859 1.375 2.6562 1.375 4.7188z"/>
  </symbol>
  <symbol id="t" overflow="visible">
   <path d="m10.75-12.516c0.82031 0 1.4453-0.17969 1.875-0.54688 0.4375-0.36328 0.65625-0.89844 0.65625-1.6094 0-0.69531-0.21875-1.2266-0.65625-1.5938-0.42969-0.375-1.0547-0.5625-1.875-0.5625h-2.9219v4.3125zm0.17188 8.9375c1.0625 0 1.8594-0.22266 2.3906-0.67188 0.53125-0.44531 0.79688-1.125 0.79688-2.0312 0-0.88281-0.26562-1.5469-0.79688-1.9844-0.52344-0.4375-1.3203-0.65625-2.3906-0.65625h-3.0938v5.3438zm4.8906-7.3438c1.1328 0.32422 2.0078 0.92969 2.625 1.8125 0.625 0.88672 0.9375 1.9688 0.9375 3.25 0 1.9688-0.66797 3.4375-2 4.4062-1.3359 0.96875-3.3555 1.4531-6.0625 1.4531h-8.7344v-20.406h7.8906c2.832 0 4.8828 0.42969 6.1562 1.2812 1.2812 0.85547 1.9219 2.2266 1.9219 4.1094 0 1-0.23438 1.8516-0.70312 2.5469-0.46875 0.6875-1.1484 1.2031-2.0312 1.5469z"/>
  </symbol>
  <symbol id="d" overflow="visible">
   <path d="m9.6406-12.188c-1.0859 0-1.9141 0.39062-2.4844 1.1719-0.57422 0.78125-0.85938 1.9062-0.85938 3.375s0.28516 2.5938 0.85938 3.375c0.57031 0.77344 1.3984 1.1562 2.4844 1.1562 1.0625 0 1.875-0.38281 2.4375-1.1562 0.57031-0.78125 0.85938-1.9062 0.85938-3.375s-0.28906-2.5938-0.85938-3.375c-0.5625-0.78125-1.375-1.1719-2.4375-1.1719zm0-3.5c2.6328 0 4.6914 0.71484 6.1719 2.1406 1.4766 1.418 2.2188 3.3867 2.2188 5.9062 0 2.5117-0.74219 4.4805-2.2188 5.9062-1.4805 1.418-3.5391 2.125-6.1719 2.125-2.6484 0-4.7148-0.70703-6.2031-2.125-1.4922-1.4258-2.2344-3.3945-2.2344-5.9062 0-2.5195 0.74219-4.4883 2.2344-5.9062 1.4883-1.4258 3.5547-2.1406 6.2031-2.1406z"/>
  </symbol>
  <symbol id="s" overflow="visible">
   <path d="m12.766-2.5938c-0.66797 0.88672-1.4062 1.543-2.2188 1.9688-0.8125 0.41797-1.7578 0.625-2.8281 0.625-1.8672 0-3.4062-0.73438-4.625-2.2031-1.2188-1.4766-1.8281-3.3516-1.8281-5.625 0-2.2891 0.60938-4.1641 1.8281-5.625 1.2188-1.4688 2.7578-2.2031 4.625-2.2031 1.0703 0 2.0156 0.21484 2.8281 0.64062 0.8125 0.41797 1.5508 1.0742 2.2188 1.9688v-2.2656h4.9219v13.766c0 2.457-0.77734 4.3359-2.3281 5.6406-1.5547 1.3008-3.8086 1.9531-6.7656 1.9531-0.94922 0-1.8711-0.074219-2.7656-0.21875-0.89844-0.14844-1.7969-0.37109-2.7031-0.67188v-3.8125c0.86328 0.48828 1.7031 0.85156 2.5156 1.0938 0.82031 0.23828 1.6484 0.35938 2.4844 0.35938 1.6016 0 2.7734-0.35156 3.5156-1.0469 0.75-0.69922 1.125-1.7969 1.125-3.2969zm-3.2188-9.5312c-1.0117 0-1.8047 0.375-2.375 1.125-0.5625 0.74219-0.84375 1.7969-0.84375 3.1719 0 1.3984 0.26953 2.4609 0.8125 3.1875 0.55078 0.71875 1.3516 1.0781 2.4062 1.0781 1.0195 0 1.8125-0.36719 2.375-1.1094 0.5625-0.75 0.84375-1.8008 0.84375-3.1562 0-1.375-0.28125-2.4297-0.84375-3.1719-0.5625-0.75-1.3555-1.125-2.375-1.125z"/>
  </symbol>
  <symbol id="r" overflow="visible">
   <path d="m12.422-21.281v3.2188h-2.7031c-0.6875 0-1.1719 0.125-1.4531 0.375-0.27344 0.25-0.40625 0.6875-0.40625 1.3125v1.0625h4.1875v3.5h-4.1875v11.812h-4.8906v-11.812h-2.4375v-3.5h2.4375v-1.0625c0-1.6641 0.46094-2.8984 1.3906-3.7031 0.92578-0.80078 2.3672-1.2031 4.3281-1.2031z"/>
  </symbol>
  <symbol id="q" overflow="visible">
   <path d="m16.547-12.766c0.61328-0.94531 1.3477-1.6719 2.2031-2.1719 0.85156-0.5 1.7891-0.75 2.8125-0.75 1.7578 0 3.0977 0.54688 4.0156 1.6406 0.92578 1.0859 1.3906 2.6562 1.3906 4.7188v9.3281h-4.9219v-7.9844-0.35938c0.007813-0.13281 0.015625-0.32031 0.015625-0.5625 0-1.082-0.16406-1.8633-0.48438-2.3438-0.3125-0.48828-0.82422-0.73438-1.5312-0.73438-0.92969 0-1.6484 0.38672-2.1562 1.1562-0.51172 0.76172-0.77344 1.8672-0.78125 3.3125v7.5156h-4.9219v-7.9844c0-1.6953-0.14844-2.7852-0.4375-3.2656-0.29297-0.48828-0.8125-0.73438-1.5625-0.73438-0.9375 0-1.6641 0.38672-2.1719 1.1562-0.51172 0.76172-0.76562 1.8594-0.76562 3.2969v7.5312h-4.9219v-15.312h4.9219v2.2344c0.60156-0.86328 1.2891-1.5156 2.0625-1.9531 0.78125-0.4375 1.6406-0.65625 2.5781-0.65625 1.0625 0 2 0.25781 2.8125 0.76562 0.8125 0.51172 1.4258 1.2305 1.8438 2.1562z"/>
  </symbol>
  <symbol id="p" overflow="visible">
   <path d="m2.5781-20.406h5.875l7.4219 14v-14h4.9844v20.406h-5.875l-7.4219-14v14h-4.9844z"/>
  </symbol>
  <symbol id="o" overflow="visible">
   <path d="m2.1875-5.9688v-9.3438h4.9219v1.5312c0 0.83594-0.007813 1.875-0.015625 3.125-0.011719 1.25-0.015625 2.0859-0.015625 2.5 0 1.2422 0.03125 2.1328 0.09375 2.6719 0.070313 0.54297 0.17969 0.93359 0.32812 1.1719 0.20703 0.32422 0.47266 0.57422 0.79688 0.75 0.32031 0.16797 0.69141 0.25 1.1094 0.25 1.0195 0 1.8203-0.39062 2.4062-1.1719 0.58203-0.78125 0.875-1.8672 0.875-3.2656v-7.5625h4.8906v15.312h-4.8906v-2.2188c-0.74219 0.89844-1.5234 1.5586-2.3438 1.9844-0.82422 0.41406-1.7344 0.625-2.7344 0.625-1.7617 0-3.1055-0.53906-4.0312-1.625-0.92969-1.082-1.3906-2.6602-1.3906-4.7344z"/>
  </symbol>
  <symbol id="n" overflow="visible">
   <path d="m17.75-9.3281v9.3281h-4.9219v-7.1406c0-1.3203-0.03125-2.2344-0.09375-2.7344s-0.16797-0.86719-0.3125-1.1094c-0.1875-0.3125-0.44922-0.55469-0.78125-0.73438-0.32422-0.17578-0.69531-0.26562-1.1094-0.26562-1.0234 0-1.8242 0.39844-2.4062 1.1875-0.58594 0.78125-0.875 1.8711-0.875 3.2656v7.5312h-4.8906v-15.312h4.8906v2.2344c0.73828-0.88281 1.5195-1.5391 2.3438-1.9688 0.83203-0.42578 1.75-0.64062 2.75-0.64062 1.7695 0 3.1133 0.54688 4.0312 1.6406 0.91406 1.0859 1.375 2.6562 1.375 4.7188z"/>
  </symbol>
  <symbol id="m" overflow="visible">
   <path d="m2.5781-20.406h8.7344c2.5938 0 4.582 0.57812 5.9688 1.7344 1.3945 1.1484 2.0938 2.7891 2.0938 4.9219 0 2.1367-0.69922 3.7812-2.0938 4.9375-1.3867 1.1562-3.375 1.7344-5.9688 1.7344h-3.4844v7.0781h-5.25zm5.25 3.8125v5.7031h2.9219c1.0195 0 1.8047-0.25 2.3594-0.75 0.5625-0.5 0.84375-1.2031 0.84375-2.1094 0-0.91406-0.28125-1.6172-0.84375-2.1094-0.55469-0.48828-1.3398-0.73438-2.3594-0.73438z"/>
  </symbol>
  <symbol id="l" overflow="visible">
   <path d="m2.3594-15.312h4.8906v15.031c0 2.0508-0.49609 3.6172-1.4844 4.7031-0.98047 1.082-2.4062 1.625-4.2812 1.625h-2.4219v-3.2188h0.85938c0.92578 0 1.5625-0.21094 1.9062-0.625 0.35156-0.41797 0.53125-1.2461 0.53125-2.4844zm0-5.9688h4.8906v4h-4.8906z"/>
  </symbol>
 </defs>
 <g>
  <path d="m558.82 147.45c0.60547 0.14453 1.2227 0.25391 1.8125 0.4375 5.3242 1.6875 9.3008 6.9375 9.4062 12.602 0.035156 1.6641-0.13281 2.0703-0.44141 3.6953l-19.027 72.121c-0.19531 0.58203-0.35156 1.1758-0.58984 1.7461-1.8945 4.5352-6.4219 7.8398-11.324 8.25-6.0977 0.50781-12.273-3.6172-14.051-9.5977-0.35156-1.1797-0.53906-2.4023-0.55469-3.6289-0.027344-1.6406 0.13281-2.043 0.44141-3.6445l10.77-40.824-111.88 64.598-1.6523 0.80469c-0.58203 0.19531-1.1523 0.42578-1.7461 0.57813-4.1719 1.0703-8.8125-0.011719-12.086-2.8008-3.2695-2.7812-5.0781-7.1914-4.6797-11.484 0.33203-3.6719 2.2461-7.1641 5.1562-9.4258 0.48047-0.375 1.0117-0.68359 1.5234-1.0234l139.91-80.781c1.4844-0.72656 1.8359-0.99219 3.4492-1.3984 1.6133-0.41016 2.043-0.33594 3.6953-0.40234 0.62109 0.0625 1.2383 0.125 1.8555 0.18359z" fill-rule="evenodd"/>
  <path d="m418.18 305.09c1.6055 0.29688 2.0391 0.29297 3.5625 0.91406 0.56641 0.23047 1.0977 0.53906 1.6523 0.80469l139.91 80.781c0.51562 0.34766 1.0547 0.66016 1.5469 1.043 4.8555 3.7852 6.6641 11.043 3.7031 16.801-1.4219 2.7734-3.832 5.0117-6.6914 6.2344-0.57031 0.24609-1.1719 0.41016-1.7578 0.60938l-71.977 19.582c-0.60547 0.125-1.1992 0.28516-1.8047 0.36328-4.2617 0.54688-8.7344-1.0703-11.66-4.2461-2.4961-2.7109-3.8008-6.4727-3.5234-10.148 0.32422-4.2852 2.8242-8.3398 6.5234-10.551 1.4102-0.84375 1.8438-0.90625 3.3828-1.4375l40.738-11.082-111.88-64.598-1.5273-1.0234c-0.45312-0.41016-0.94141-0.78906-1.3711-1.2266-2.5742-2.6367-3.9922-6.3555-3.8242-10.035 0.19531-4.2969 2.5664-8.4219 6.1992-10.746 1.5586-0.99219 3.3086-1.6641 5.1289-1.9531 1.2109-0.19531 2.4414-0.14062 3.668-0.085937z" fill-rule="evenodd"/>
  <path d="m486.33 127.79 1.8047 0.36328 71.977 19.578c0.58984 0.20703 1.1914 0.37109 1.7656 0.61719 4.5625 1.9492 7.8555 6.5469 8.1523 11.594 0.26172 4.3438-1.7188 8.7539-5.168 11.441-0.48828 0.37891-1.0312 0.69531-1.5469 1.043l-139.91 80.781c-1.4688 0.71875-1.8086 0.98047-3.3984 1.3828-4.1719 1.0703-8.8125-0.011719-12.086-2.8008-3.2695-2.7812-5.0781-7.1914-4.6797-11.484 0.33203-3.6719 2.2461-7.1641 5.1562-9.4258 0.48047-0.375 1.0117-0.68359 1.5234-1.0234l111.88-64.598-40.738-11.082-1.7344-0.60547c-0.54688-0.27344-1.1133-0.51953-1.6406-0.83594-3.6914-2.1992-6.1992-6.25-6.5312-10.551-0.41406-5.4922 2.8711-11.082 7.9805-13.344 1.125-0.5 2.3125-0.83984 3.5273-1.0195 1.2148-0.17188 2.4453-0.10156 3.6719-0.027344z" fill-rule="evenodd"/>
  <path d="m418.18 305.09c1.6055 0.29688 2.0391 0.29297 3.5625 0.91406 0.56641 0.23047 1.0977 0.53906 1.6523 0.80469l111.88 64.598-10.77-40.824-0.34766-1.8086c-0.035156-0.60938-0.10547-1.2227-0.10156-1.8359 0.085938-5.5273 3.8906-10.781 9.1602-12.566 4.6602-1.5742 10.129-0.34766 13.676 3.0586 1.3281 1.2812 2.3867 2.8281 3.0898 4.5312 0.23438 0.56641 0.39844 1.1641 0.59375 1.7461l19.027 72.121c0.23438 1.2227 0.46484 2.4531 0.44141 3.6914-0.11719 6.1602-4.8398 11.957-11.223 13.043-2.4531 0.41406-5.0117 0.14062-7.3242-0.80078-0.57813-0.23047-1.1133-0.54297-1.6758-0.81641l-139.91-80.781c-0.50781-0.33984-1.043-0.64844-1.5273-1.0234-3.3945-2.6367-5.3945-6.957-5.1953-11.262 0.19531-4.2969 2.5664-8.4219 6.1992-10.746 1.5586-0.99219 3.3086-1.6641 5.1289-1.9531 1.2109-0.19531 2.4414-0.14063 3.668-0.085938z" fill-rule="evenodd"/>
  <path d="m285.48 305.17c0.59766 0.14062 1.2109 0.23438 1.793 0.41406 3.5273 1.0742 6.5586 3.6562 8.1797 6.9648 1.8867 3.8633 1.7852 8.6172-0.28516 12.402-0.88672 1.6172-2.1016 3.0469-3.5547 4.1758-0.48828 0.375-1.0195 0.68359-1.5273 1.0234l-139.91 80.781c-0.55859 0.27344-1.0977 0.58984-1.6758 0.81641-4.6094 1.8711-10.18 0.96875-13.973-2.3672-3.2773-2.8828-5-7.3906-4.4805-11.73 0.074219-0.61719 0.23438-1.2227 0.34766-1.832l19.035-72.121c0.51953-1.5469 0.57812-1.9766 1.4102-3.3945 2.1797-3.7109 6.2148-6.2422 10.5-6.6016 6.0859-0.50781 12.273 3.6133 14.051 9.5977 0.51953 1.7695 0.67578 3.6406 0.45312 5.4648-0.074219 0.60938-0.23047 1.2031-0.34766 1.8086l-10.77 40.824 111.88-64.598 1.6523-0.80469c1.5469-0.51562 1.9258-0.72656 3.5547-0.91406 1.2148-0.14062 2.4453-0.027343 3.668 0.085938z" fill-rule="evenodd"/>
  <path d="m217.34 127.81c0.60547 0.12891 1.2109 0.21875 1.8047 0.38672 4.7148 1.3594 8.5195 5.4727 9.4883 10.316 0.83984 4.2109-0.46875 8.7852-3.4375 11.918-1.2695 1.3398-2.8125 2.4062-4.5078 3.1289-0.56641 0.24219-1.1602 0.40234-1.7344 0.60547l-40.738 11.082 111.88 64.598 1.5273 1.0234c0.46094 0.41016 0.94531 0.78516 1.3711 1.2266 3.0078 3.0703 4.4023 7.6211 3.6172 11.867-0.66797 3.625-2.8828 6.9258-5.9922 8.9141-3.6172 2.3125-8.3594 2.7539-12.355 1.125-0.57031-0.23047-1.1016-0.53906-1.6523-0.80469l-139.91-80.781c-1.0352-0.69922-2.0703-1.3984-2.9336-2.2891-4.2891-4.418-5.0742-11.855-1.3477-17.148 1.4336-2.0391 3.4336-3.6562 5.7227-4.6367 0.57031-0.24609 1.1758-0.41016 1.7656-0.61719l71.977-19.578c1.8047-0.36328 1.8047-0.36328 3.6406-0.47656 0.60938 0.050781 1.2227 0.09375 1.832 0.14062z" fill-rule="evenodd"/>
  <path d="m285.48 305.17c0.59766 0.14062 1.2109 0.23438 1.793 0.41406 3.5273 1.0742 6.5586 3.6562 8.1797 6.9648 1.8867 3.8633 1.7852 8.6172-0.28516 12.402-0.88672 1.6172-2.1016 3.0469-3.5547 4.1758-0.48828 0.375-1.0195 0.68359-1.5273 1.0234l-111.88 64.598 40.734 11.082 1.7422 0.60547c0.54688 0.27344 1.1133 0.51562 1.6406 0.83594 5.2461 3.1367 7.8633 10.09 5.8203 15.988-2.0039 5.7773-8.2812 9.7539-14.469 8.9531-0.60938-0.078125-1.2031-0.24219-1.8086-0.36328l-71.977-19.582c-0.58984-0.20312-1.1875-0.36328-1.7578-0.60938-4.5547-1.9492-7.8555-6.5078-8.1602-11.594-0.25781-4.3438 1.7266-8.7539 5.168-11.441 0.49219-0.37891 1.0312-0.69531 1.5508-1.043l139.91-80.781c1.4609-0.71875 1.8086-0.98047 3.3984-1.3828 1.5898-0.41016 2.0156-0.34766 3.6445-0.42188 0.60938 0.054687 1.2227 0.11328 1.832 0.16797z" fill-rule="evenodd"/>
  <path d="m144.89 147.34c1.6289 0.29297 2.0664 0.28516 3.6055 0.90625 0.57812 0.23437 1.1211 0.54687 1.6758 0.82422l139.91 80.781c0.50781 0.33984 1.0469 0.64844 1.5273 1.0234 3.3945 2.6328 5.3984 6.957 5.2031 11.262-0.16797 3.6836-1.9219 7.2578-4.7266 9.6484-3.2695 2.7891-7.9062 3.8711-12.086 2.8008-1.5898-0.40234-1.9375-0.66797-3.3984-1.3828l-111.88-64.598 10.773 40.824 0.34766 1.8086c0.035156 0.60938 0.10547 1.2227 0.09375 1.8359-0.074219 4.9102-3.0625 9.6602-7.4609 11.855-5.4766 2.7344-12.746 1.1875-16.609-3.7109-0.76172-0.96875-1.3828-2.0312-1.8594-3.1641-0.23437-0.57031-0.39062-1.1641-0.58984-1.7461l-19.027-72.121c-0.11719-0.60938-0.28125-1.2148-0.35156-1.832-0.66016-5.5273 2.4453-11.328 7.582-13.781 1.125-0.53125 2.3203-0.91406 3.543-1.1211 1.2266-0.20703 2.4766-0.16406 3.7188-0.11328z" fill-rule="evenodd"/>
  <path d="m350.5 189.55c24.438 0.14062 48.746 10.664 65.586 28.676 17.879 19.137 26.82 46.25 23.738 72.402-2.6758 22.754-14.352 44.285-32.02 58.945-20.754 17.227-49.5 24.5-76.086 19.02-23.277-4.8008-44.359-19.125-57.348-38.977-14.062-21.48-18.434-49.062-11.523-73.859 6.3242-22.691 21.785-42.656 42.43-54.375 13.254-7.5273 28.441-11.621 43.59-11.82 0.54297-0.011718 1.0938-0.011718 1.6367-0.011718zm-0.50781 26.965c-18.512 0.042969-36.691 8.418-48.621 22.656-9.9062 11.82-15.316 27.277-14.828 42.738 0.57812 18.176 9.2305 35.918 23.547 47.465 14.027 11.316 32.934 16.258 50.746 13.156 20.828-3.625 39.336-18 47.734-38.059 6.3516-15.148 6.3516-32.949 0.38672-47.965-7.875-19.828-26.293-35.129-47.66-38.992-3.7227-0.67188-7.5-1.0039-11.305-1.0039z" fill-rule="evenodd"/>
  <use x="67.199219" y="644" xlink:href="#u"/>
  <use x="87.75" y="644" xlink:href="#c"/>
  <use x="101.558594" y="644" xlink:href="#b"/>
  <use x="120.546875" y="644" xlink:href="#e"/>
  <use x="139.441406" y="644" xlink:href="#a"/>
  <use x="152.828125" y="644" xlink:href="#b"/>
  <use x="171.816406" y="644" xlink:href="#k"/>
  <use x="201.609375" y="644" xlink:href="#j"/>
  <use x="221.652344" y="644" xlink:href="#i"/>
  <use x="249.652344" y="644" xlink:href="#h"/>
  <use x="269.953125" y="644" xlink:href="#e"/>
  <use x="288.847656" y="644" xlink:href="#g"/>
  <use x="305.445312" y="644" xlink:href="#f"/>
  <use x="335.128906" y="644" xlink:href="#t"/>
  <use x="356.46875" y="644" xlink:href="#d"/>
  <use x="375.707031" y="644" xlink:href="#s"/>
  <use x="395.75" y="644" xlink:href="#e"/>
  <use x="414.644531" y="644" xlink:href="#c"/>
  <use x="428.453125" y="644" xlink:href="#a"/>
  <use x="67.199219" y="672" xlink:href="#r"/>
  <use x="79.382812" y="672" xlink:href="#c"/>
  <use x="93.191406" y="672" xlink:href="#d"/>
  <use x="112.425781" y="672" xlink:href="#q"/>
  <use x="151.351562" y="672" xlink:href="#a"/>
  <use x="164.734375" y="672" xlink:href="#f"/>
  <use x="184.667969" y="672" xlink:href="#b"/>
  <use x="213.40625" y="672" xlink:href="#p"/>
  <use x="236.839844" y="672" xlink:href="#d"/>
  <use x="256.078125" y="672" xlink:href="#o"/>
  <use x="276.011719" y="672" xlink:href="#n"/>
  <use x="305.691406" y="672" xlink:href="#m"/>
  <use x="326.214844" y="672" xlink:href="#c"/>
  <use x="340.023438" y="672" xlink:href="#d"/>
  <use x="359.257812" y="672" xlink:href="#l"/>
  <use x="368.855469" y="672" xlink:href="#b"/>
  <use x="387.847656" y="672" xlink:href="#g"/>
  <use x="404.445312" y="672" xlink:href="#a"/>
 </g>
</svg>
